<?xml version="1.0" encoding="UTF-8" standalone="no"?>
<!DOCTYPE svg PUBLIC "-//W3C//DTD SVG 1.1//EN" "http://www.w3.org/Graphics/SVG/1.1/DTD/svg11.dtd">
<svg width="100%" height="100%" viewBox="0 0 654 654" version="1.1" xmlns="http://www.w3.org/2000/svg" xmlns:xlink="http://www.w3.org/1999/xlink" xml:space="preserve" xmlns:serif="http://www.serif.com/" style="fill-rule:evenodd;clip-rule:evenodd;stroke-linejoin:round;stroke-miterlimit:2;">
    <g transform="matrix(1,0,0,1,0,52.5)">
        <rect x="0" y="0" width="654" height="549" style="fill:none;fill-rule:nonzero;"/>
    </g>
    <g transform="matrix(3.37032,1.39604,-1.39604,3.37032,321.539,73.0081)">
        <g id="orig-mod" transform="matrix(1.84673,0.0139506,0.0139506,1.87463,-48.1463,-26.3001)">
            <path d="M43.5,52C43.2,51.8 42.6,51.5 41.8,51.6C40.9,51.7 40.5,52.3 40,53.2C39.5,54.1 39.4,54.9 38.9,55.6C38.4,56.4 37.2,57.2 36.6,57.7C36,58.2 34.3,59.5 33.9,60C33.5,60.5 33.1,61.1 31.3,62.1C29.5,63.1 29.8,63.3 28.8,63.9C27.8,64.5 27.9,64.4 27.2,65.2C26.5,66 25.8,66.3 25.5,66.7C25.2,67.1 25,66.9 24.7,67.1C24.4,67.3 23.8,67.6 23.4,67.9C23,68.2 23,68.5 22.7,68.6C22.4,68.7 22,68.8 21.7,69.1C21.4,69.4 20.4,70 20,70.3C19.6,70.6 19.1,70.4 17.8,71.4C16.5,72.5 14,73.5 13.4,73.9C12.8,74.3 12.4,74.4 12.3,74.2C12.2,74 12.3,73.7 12.1,73.5C11.9,73.2 11.7,72.9 11.3,72.9C10.9,72.8 10.3,72.9 10,73.1C9.7,73.2 9.5,73.9 9.2,74.1C8.9,74.3 8,74.4 7.7,74.6C7.4,74.7 7.3,75 6.9,75.2C6.5,75.4 4.6,76.2 4.1,76.4C3.7,76.6 3.7,76.7 3.1,77.1C2.5,77.5 2.7,77.8 2.6,78.3C2.5,78.8 2.6,78.8 2.4,79.3C2.2,79.8 2,80.6 2,80.8C2,81 2.2,81.1 2.2,81.4C2.2,81.8 2.3,81.7 2.6,81.7C2.9,81.7 2.9,81.5 3,81.4L3.6,80.8C3.8,80.5 4.8,80.7 5,80.8C5.2,80.9 5.2,81.2 4.9,81.3C4.7,81.3 4.7,81.4 4.4,81.6C4.1,81.8 3.6,82.5 3.5,82.8C3.4,83.1 3.6,83.4 3.7,83.5C3.8,83.6 3.7,84.2 3.8,84.6C3.9,84.8 4,85 4.2,85.5C4.3,86 5,86 5.1,86.1C5.2,86.2 6,86.4 6.7,86.4C7.3,86.4 8.3,84.9 8.3,84.7C8.3,84.4 8.1,83.3 8.3,83.2C8.4,83 8.6,83.5 8.9,83.5C9.1,83.5 9.7,83.5 10,83.1C10.3,82.8 9.9,82.6 9.8,82.1C9.7,81.6 9.5,81.3 9.6,81C9.8,80.6 9.8,80.6 10.3,80.1C10.8,79.6 10.6,79.6 10.6,79.2C10.6,78.8 10.6,78.5 10.8,77.8C10.9,77 11.3,77.2 11.6,76.7C11.9,76.2 12.4,75.8 13.1,75.3C13.7,74.8 14,74.8 14.4,74.6C14.8,74.4 15.3,74.2 15.6,73.8C15.9,73.5 16.5,73.6 16.8,73.5C17.1,73.4 17.6,72.9 18.4,72.5C19.2,72.1 20.3,71.3 20.8,71C21.2,70.6 22.9,69.9 23.5,69.6C24.1,69.3 25,68.3 25.5,67.7C26.1,67.1 26.9,67 27.7,66.6C28.5,66.2 29.1,65.5 29.4,65.2C29.7,64.9 30.4,64.8 30.8,64.4C31.3,64 31.3,63.7 32.3,62.9C33.2,62.1 34.7,60.9 35.2,60.5C35.7,60.1 36.4,59.5 36.9,58.8C37.3,58.1 38.2,57.4 38.4,57.2C38.6,57 38.9,56.8 39.2,56.9C39.5,57 39.8,56.9 40,56.7C40.2,56.6 42.4,56.9 43.2,56.3C43.9,55.7 44.5,54.3 44.5,53.7C44.5,53.2 44.1,52.4 43.5,52ZM64.8,31.4C64.7,31.8 65.1,31.9 65.4,31.7C65.7,31.5 65.8,31.2 65.5,31C65.2,30.8 64.9,31 64.8,31.4ZM62.7,32.9C62.4,32.9 62.1,33.3 61.9,33.2C61.7,33.1 61.4,33.2 61.2,33.4C61.1,33.6 60.7,34.4 60.7,34.7C60.5,36.2 61,36.4 61.6,36.3C62.2,36.2 63.3,36.1 63.5,35.6C63.7,35.1 63.9,34.4 63.6,33.9C63.4,33.3 63.1,32.9 62.7,32.9ZM60.1,36.7C60,36.7 59.7,37 59.3,37.5C58.9,38 59,37.8 58.9,38.1C58.8,38.4 58.4,38.6 58.2,38.7C58,38.8 57.8,38.9 57.5,38.8C57.1,38.7 56.7,38.8 56.3,39.4C56,40 56,40.6 56,40.8C56,41 56.1,41.4 56,41.5C55.9,41.6 55.3,41.4 55.1,41.4C54.9,41.4 54.4,41.3 54,42.2C53.5,43.1 53.6,44 53.9,43.8C54.2,43.6 54.1,43.8 54.3,44C54.5,44.1 55.1,44.1 55.8,43.6C56.5,43.1 56.1,42.1 56.3,42C56.5,41.8 56.7,41.8 57.1,41.9C57.5,42 58.1,41.3 58.4,40.9C58.7,40.5 58.3,39.9 58.5,39.5C58.6,39.1 58.9,38.9 59.4,38.5C59.9,38.1 61.1,37.3 60.4,36.8C60.3,36.7 60.3,36.7 60.1,36.7ZM51,44.1C50.4,44.1 49.9,44.3 49.6,44.7C49.2,45.1 49.1,45.9 49.1,45.9C49,47 49.8,47.8 50.2,48C50.6,48.2 51.5,47.9 52.1,47.3C52.7,46.7 52.9,46.3 52.7,45.6C52.5,45 51.6,44.1 51,44.1ZM53.1,42.4C52.8,42.4 52.3,42.2 52.1,42.9C52,43.1 52.2,43.5 52.6,43.7C53,43.8 53.3,43.8 53.4,43.5C53.4,43.1 53.3,42.4 53.1,42.4ZM52.3,41.3C52.3,41.5 52.5,41.6 52.6,41.6C52.7,41.5 52.8,41.2 52.7,41.1C52.6,41 52.3,41 52.3,41.3ZM52.9,39.2C52.8,39 52.6,39 52.5,39C52.4,39 52.2,39.2 52.2,39.4C52.2,39.6 52.4,39.6 52.6,39.5C52.8,39.5 53,39.4 52.9,39.2ZM50.5,39.1C50.4,39.2 50.1,39.3 50.2,39.5C50.3,39.6 50.6,39.7 50.6,39.7C50.8,39.8 50.8,39.6 51,39.6C51.3,39.6 51.3,39.5 51.1,39.2C50.8,38.9 50.6,39 50.5,39.1ZM44.9,48.8C44,49.3 43.8,50.9 45.1,51.6C45.2,51.7 45.1,52 46.2,51.7C47.3,51.5 48.1,50.1 47.3,49.1C46.5,48.1 45.8,48.3 44.9,48.8Z" style="fill:rgb(230,230,230);fill-rule:nonzero;stroke:rgb(230,230,230);stroke-width:0.15px;"/>
        </g>
        <g transform="matrix(1.84673,0.0139506,0.0139506,1.87463,-49.5331,-30.2367)">
            <path d="M9.6,70.7C10.1,70.8 9.8,71 9.9,71.2C10,71.4 10.3,71.7 10.6,71.7C10.7,71.7 10.9,71.4 11.3,71.6C11.4,71.7 11.5,71.7 11.6,71.7C11.7,71.8 11.8,71.8 11.9,71.6C12.1,71.4 12.8,71.7 13.3,71.4C13.8,71.1 14.1,70.9 14.3,70.8C14.5,70.7 14.6,70.9 14.6,71.2C14.7,71.5 14.6,71.6 14.5,71.6C14.4,71.7 14.2,72 14.3,72.1C14.4,72.2 14.7,71.9 14.7,71.8C14.7,71.6 15,71.6 15.1,71.3C15.2,71.1 15.1,70.8 15.1,70.7C15,70.6 14.9,70.4 15,70.3C15.1,70.2 15.4,70.2 15.5,70.1C15.6,70.1 15.9,69.9 16,69.9C16,69.8 16,69.7 15.9,69.7C15.8,69.7 15.5,69.9 15.3,69.9C15.1,69.9 15.1,69.8 15,69.7C14.9,69.6 15.1,69.3 15.1,69.2C15.1,69 15.2,68.8 15.3,68.8C15.5,68.8 15.9,68.6 16.3,68.2C16.6,67.8 17,67.7 17.3,67.1C17.6,66.5 17.6,66.4 17.4,66.3C17.2,66.2 16.7,66.3 16.5,66.4C16.3,66.5 16.3,66.2 16.3,66C16.3,65.8 16.3,65.5 16,65.7C15.8,65.8 15.6,66.1 15.5,66.1C15.4,66.1 15.3,65.9 15.3,65.8C15.3,65.7 15.3,65.5 15.2,65.5C15,65.5 14.6,65.6 14.4,65.3C14.2,65 14,64.9 13.9,64.9C13.8,64.9 13.6,65.4 13.3,65.3C13,65.2 12.8,65.3 12.6,65.4C12.4,65.5 12.3,65.5 12.2,65.4C12.1,65.3 11.7,65.4 11.3,65.2C10.9,65 10.8,65 9.9,65.2C9,65.5 9.1,65.3 8.5,66C7.9,66.7 7.8,67.3 7.6,67.7C7.4,68.1 7,68.3 7.2,69C8.2,71 9.1,70.6 9.6,70.7ZM11.9,72.1C11.8,72.3 12,72.5 12.2,72.5C12.3,72.5 12.5,72.3 12.4,72.3C12.4,72.2 12.1,72 12,72.1L11.9,72.1ZM16.5,63.9C16.4,63.8 16.3,63.8 16.3,63.9C16.3,64 16.6,64.2 17,64.2C17.4,64.2 17.5,64.3 17.6,64.3C17.7,64.3 18.1,64.5 18.1,64.5C18.2,64.4 18.1,64.2 17.9,64.2C17.7,64.1 17.4,64.2 17.1,64.1C16.8,63.9 16.6,64 16.5,63.9ZM19.1,63.1C18.5,63.7 18.4,63.8 18.4,64.3C18.3,64.8 18.6,65.2 18.7,65.4C19.1,66.1 19.4,65.7 19.6,65.9C19.8,66.1 19.7,66.2 20.2,66.2C20.7,66.1 21.3,66.1 21.5,65.8C21.7,65.4 21.7,65 21.9,64.7C22.1,64.4 21.7,64.1 21.7,63.8C21.6,63.5 21.3,63.1 20.9,62.9C20.4,62.5 19.7,62.5 19.1,63.1ZM18,65.8C17.8,66 18,66.2 18,66.2C18.1,66.2 18.3,65.9 18.2,65.9C18.1,65.8 18,65.8 18,65.8ZM19.8,66.6C19.7,66.7 19.6,66.6 19.6,66.7C19.5,66.8 19.6,66.9 19.6,67C19.6,67.4 19.7,67.8 19.8,67.6C19.9,67.5 20,67.3 19.9,67.1C19.9,66.9 19.8,66.8 19.9,66.7C19.9,66.7 19.9,66.6 19.8,66.6ZM24.3,59L24.3,59.3C24.3,59.7 24.7,59.6 25,59.4C25.3,59.2 25.3,59.5 25.5,59.3C25.7,59.1 25.5,58.7 25.3,58.6C25.1,58.6 24.6,58.6 24.4,58.7C24.4,58.9 24.4,59 24.3,59ZM26,58.3C25.9,58.4 26,58.6 26.1,58.6C26.2,58.6 26.3,58.5 26.3,58.4C26.3,58.3 26.2,58.1 26.1,58.1C26,58.1 26,58.2 26,58.3ZM26.1,55.7C26,55.9 25.8,56.3 25.9,56.5C25.9,56.7 26,56.9 26,56.9C26.2,57.6 26.5,58 27.1,58.2C27.7,58.3 28.1,58.1 28.4,57.9C28.7,57.7 29,57.4 29,57C29,56.6 28.9,56 28.5,55.6C28.2,55.2 27.9,55.2 27.4,55.2C27,55.2 26.3,55.5 26.1,55.7ZM29.9,56C30.1,55.9 30.1,55.9 30.4,55.7C30.6,55.5 30.7,55.4 30.6,55.3C30.5,55.2 30.2,55.1 30.1,55C30.1,54.9 30,54.7 29.8,54.8C29.6,54.8 29.3,55.1 29.2,55.2C29.1,55.4 29.2,55.5 29.2,55.6C29.3,55.9 29.7,56.1 29.9,56ZM68.6,18.4C68.7,18.5 68.7,18.6 68.9,18.7C69.5,19.1 69.4,19.3 69.7,19.3C70,19.4 69.9,19.1 70,19.1C70.1,19.1 70.3,19.2 70.4,19.1C70.5,19 70.5,19 70.7,19C70.8,19 71,19 71,18.9C71.1,18.8 70.9,18.7 71,18.4C71.1,18.1 71.2,18.1 71.1,17.9C71,17.7 70.9,17.3 70.7,17.2C70.5,17.1 70.3,17.1 70.1,17C69.9,16.9 70,16.6 69.8,16.7C69.7,16.7 69.5,16.7 69.2,17C68.9,17.4 68.8,17.4 68.7,17.7C68.5,18.1 68.5,18.2 68.6,18.4ZM77.983,20.492C78.383,20.492 79.083,20.492 79.483,19.892C79.783,19.192 79.583,18.192 79.083,17.892C78.583,17.592 77.883,17.392 77.183,17.992C76.483,18.592 76.683,19.192 76.683,19.392C76.983,20.392 77.583,20.492 77.983,20.492ZM79.983,16.592C79.683,16.792 79.683,16.792 79.683,17.092C79.683,17.292 79.883,17.492 80.083,17.492C80.283,17.492 80.483,17.392 80.583,17.292C80.783,17.192 80.683,17.092 80.683,16.892C80.483,16.592 80.283,16.392 79.983,16.592ZM53.7,36.7C54.1,36.9 54.5,37.1 54.7,37.1C54.9,37.1 55.3,37.4 55.9,37C56.4,36.7 56.7,36.2 56.7,35.8C56.7,35.4 56.6,35.2 56.7,35C56.8,34.7 56.8,34.3 56.8,34.2C56.8,34 56.1,33.2 55.9,33.1C55.6,33 55.3,32.7 54.5,33.2C53.7,33.6 53.3,34 53.1,34.2C53,34.4 52.8,34.7 52.7,34.8C52.6,36.2 53.2,36.5 53.7,36.7ZM67.4,20.2C67.2,20.1 66.7,20.1 66.6,20.6C66.5,20.9 66.9,21.5 67.4,21.1C67.8,20.7 67.6,20.3 67.4,20.2ZM52,30.8C52.4,30.5 52.6,30 52.4,29.8C52.2,29.6 51.9,29.6 51.7,29.4C51.6,29.2 51.2,29.2 51,29.5C50.8,29.8 50.8,30.2 50.8,30.3C51,30.9 51.7,31.1 52,30.8ZM53.6,30.1C53.8,30.2 53.7,30.2 53.7,30.2C53.7,30.2 53.5,30.2 53.4,30.6C53.2,31 53.5,31.6 53.9,31.7C54.3,31.8 55,31.6 55,31.2C55,30.8 54.8,30.5 54.8,30.4C54.8,30.3 55,30 55.3,29.9C55.6,29.8 56.3,29.1 56,28.5C55.8,27.9 55.7,27.9 55.8,27.7C55.9,27.5 56.3,27.5 56.4,27.2C56.5,26.9 56.3,26.6 56.1,26.5C55.9,26.4 55.6,26.4 55.5,26.6C55.4,26.8 55.1,27.2 55,27.2C54.9,27.2 54.7,27.1 54.4,27C54.1,26.9 53.3,27 52.9,27.7C52.5,28.4 52.6,29 52.7,29.3C53,29.8 53.4,30.1 53.6,30.1ZM57.5,24.7C57.5,24.8 57.9,24.9 58.1,24.6C58.3,24.3 58.4,23.9 58.1,23.8C57.8,23.7 57.5,23.8 57.3,24C57.1,24.1 57.1,24.3 57.1,24.4C57.1,24.9 57.4,24.7 57.5,24.7ZM16.7,61.3C17.4,61.4 17.6,60.7 17.4,60.3C17.3,60.1 17.1,59.9 16.8,59.9C16.5,59.9 16.1,60.3 16,60.5C15.9,60.7 16.1,61.2 16.7,61.3ZM19.4,61.6C20.1,61.6 20.6,61.1 20.6,60.4C20.6,59.7 20.3,59.4 19.4,59.2C18.8,59.1 18,60.1 18.1,60.5C18.1,60.9 18.7,61.6 19.4,61.6ZM21.9,60.3C22.1,60.3 22.6,60.1 22.3,59.7C22.2,59.5 21.9,59.5 21.7,59.6C21.5,59.8 21.8,60.3 21.9,60.3ZM24.6,56.7C25.2,56.4 25.3,55.7 24.9,55.4C24.6,55.1 24.1,55.1 23.8,55.2C23.3,55.4 22.9,56.4 22.9,56.7C23.1,56.9 24,57 24.6,56.7ZM26.8,54.7C27.2,54.5 27.4,54 27.4,53.6C27.4,53.6 27.3,53.3 27,53.1C26.7,53 26,53.2 25.8,53.6C25.6,53.9 26.4,54.9 26.8,54.7ZM29,52.3C29.3,52.1 29,51.6 28.8,51.5C28.6,51.4 27.9,51.9 28.2,52C28.6,52.3 28.7,52.5 29,52.3ZM35.7,43.2C36.2,42.9 36.2,42.8 36.3,42.4C36.4,42 36.2,41.5 35.9,41.3C35.3,40.9 34.8,41.4 34.5,41.6C34.2,41.8 34.3,42.5 34.6,43C34.8,43.6 35.2,43.5 35.7,43.2ZM33.9,45.5C34.2,45.4 34.3,45.1 34.1,44.7C34.1,44.7 33.7,44.3 33.5,44.3C33.3,44.2 33,44.8 32.9,45.2C32.8,45.7 33.6,45.7 33.9,45.5ZM37,40.1C37.2,39.9 37.2,39.3 36.9,39C36.8,38.9 36.3,38.9 36,39.1C35.7,39.2 35.7,39.9 36,40.3C36.3,40.7 36.8,40.3 37,40.1ZM37.6,37.1C37.7,36.9 37.6,36.7 37.4,36.6C37,36.5 36.8,37.1 36.9,37.3C37,37.6 37.5,37.4 37.6,37.1ZM37.7,35.5C37.9,35.5 37.9,35.2 37.7,35.1C37.7,35.1 37.6,35 37.4,35.1C37.3,35.2 37.6,35.5 37.7,35.5ZM39.1,29.6C39.2,29.4 39.3,29.2 39.1,29.1C38.8,28.9 38.5,29.3 38.6,29.5C38.6,29.6 39,29.8 39.1,29.6ZM38.7,28C38.8,28.2 39.1,28.1 39.2,28C39.3,27.9 39.3,27.5 39.1,27.4C38.9,27.1 38.6,27.8 38.7,28ZM38.9,26.8C39,26.7 39.1,26.6 38.9,26.5C38.8,26.4 38.7,26.5 38.6,26.6C38.6,26.7 38.8,26.8 38.9,26.8Z" style="fill:rgb(230,230,230);fill-rule:nonzero;stroke:rgb(230,230,230);stroke-width:0.15px;"/>
        </g>
    </g>
    <g transform="matrix(1.84095,0,0,1.88041,-234.782,-35.0737)">
        <g transform="matrix(96,0,0,96,147.307,182.89)">
            <path d="M0.157,-0L0.157,-0.7L0.502,-0.7C0.543,-0.7 0.581,-0.691 0.614,-0.672C0.647,-0.653 0.674,-0.627 0.694,-0.595C0.714,-0.563 0.724,-0.527 0.724,-0.488C0.724,-0.446 0.714,-0.409 0.694,-0.377C0.673,-0.344 0.646,-0.319 0.611,-0.301C0.576,-0.282 0.536,-0.273 0.493,-0.273L0.235,-0.273L0.235,-0L0.157,-0ZM0.664,-0L0.45,-0.308L0.528,-0.333L0.76,-0L0.664,-0ZM0.235,-0.349L0.489,-0.349C0.518,-0.349 0.545,-0.355 0.568,-0.367C0.591,-0.379 0.608,-0.395 0.622,-0.416C0.635,-0.437 0.641,-0.46 0.641,-0.486C0.641,-0.513 0.634,-0.536 0.621,-0.557C0.607,-0.578 0.588,-0.594 0.565,-0.606C0.541,-0.618 0.514,-0.624 0.484,-0.624L0.235,-0.624L0.235,-0.349Z" style="fill:rgb(230,230,230);fill-rule:nonzero;"/>
        </g>
        <g transform="matrix(96,0,0,96,210.571,182.89)">
            <path d="M0.407,0.01C0.345,0.01 0.29,-0.002 0.241,-0.025C0.192,-0.048 0.155,-0.079 0.128,-0.12C0.1,-0.161 0.087,-0.207 0.087,-0.259C0.087,-0.301 0.095,-0.339 0.112,-0.372C0.128,-0.405 0.15,-0.434 0.178,-0.459C0.206,-0.483 0.239,-0.502 0.277,-0.515C0.315,-0.528 0.355,-0.535 0.397,-0.535C0.438,-0.535 0.477,-0.529 0.512,-0.517C0.547,-0.504 0.578,-0.487 0.604,-0.464C0.629,-0.441 0.649,-0.415 0.663,-0.384C0.677,-0.353 0.683,-0.319 0.682,-0.282L0.681,-0.241L0.151,-0.241L0.14,-0.304L0.624,-0.304L0.606,-0.293L0.606,-0.317C0.604,-0.342 0.594,-0.366 0.576,-0.389C0.558,-0.411 0.534,-0.429 0.504,-0.443C0.473,-0.457 0.438,-0.464 0.397,-0.464C0.354,-0.464 0.314,-0.457 0.279,-0.443C0.244,-0.428 0.216,-0.407 0.195,-0.378C0.174,-0.349 0.164,-0.311 0.164,-0.264C0.164,-0.223 0.175,-0.188 0.196,-0.158C0.217,-0.127 0.246,-0.104 0.285,-0.087C0.324,-0.07 0.369,-0.062 0.422,-0.062C0.464,-0.062 0.501,-0.068 0.533,-0.079C0.565,-0.09 0.595,-0.106 0.624,-0.125L0.658,-0.068C0.639,-0.053 0.617,-0.04 0.591,-0.029C0.565,-0.017 0.537,-0.008 0.507,-0.001C0.476,0.007 0.443,0.01 0.407,0.01Z" style="fill:rgb(230,230,230);fill-rule:nonzero;"/>
        </g>
        <g transform="matrix(96,0,0,96,267.115,182.89)">
            <path d="M0.157,-0L0.157,-0.7L0.509,-0.7C0.55,-0.7 0.586,-0.691 0.618,-0.673C0.65,-0.655 0.675,-0.63 0.694,-0.599C0.713,-0.568 0.722,-0.532 0.722,-0.492C0.722,-0.449 0.712,-0.411 0.693,-0.378C0.673,-0.345 0.647,-0.318 0.614,-0.299C0.581,-0.28 0.543,-0.27 0.501,-0.27L0.235,-0.27L0.235,-0L0.157,-0ZM0.235,-0.346L0.499,-0.346C0.526,-0.346 0.55,-0.353 0.571,-0.366C0.592,-0.379 0.609,-0.396 0.621,-0.418C0.632,-0.44 0.638,-0.465 0.638,-0.493C0.638,-0.518 0.632,-0.541 0.621,-0.561C0.609,-0.58 0.592,-0.596 0.571,-0.607C0.55,-0.618 0.526,-0.624 0.499,-0.624L0.235,-0.624L0.235,-0.346Z" style="fill:rgb(230,230,230);fill-rule:nonzero;"/>
        </g>
        <g transform="matrix(96,0,0,96,325.675,182.89)">
            <path d="M0.413,0.01C0.35,0.01 0.295,-0.002 0.247,-0.025C0.199,-0.048 0.162,-0.081 0.135,-0.122C0.108,-0.163 0.094,-0.21 0.094,-0.263C0.094,-0.316 0.108,-0.363 0.135,-0.404C0.162,-0.445 0.199,-0.477 0.247,-0.5C0.295,-0.523 0.35,-0.535 0.413,-0.535C0.474,-0.535 0.529,-0.523 0.577,-0.5C0.625,-0.477 0.663,-0.445 0.69,-0.404C0.717,-0.363 0.731,-0.316 0.731,-0.263C0.731,-0.21 0.717,-0.163 0.69,-0.122C0.663,-0.081 0.625,-0.048 0.577,-0.025C0.529,-0.002 0.474,0.01 0.413,0.01ZM0.413,-0.061C0.458,-0.061 0.499,-0.07 0.536,-0.087C0.572,-0.104 0.601,-0.128 0.622,-0.159C0.643,-0.189 0.654,-0.224 0.653,-0.263C0.654,-0.302 0.644,-0.337 0.623,-0.367C0.602,-0.397 0.573,-0.421 0.536,-0.438C0.499,-0.455 0.458,-0.464 0.413,-0.464C0.366,-0.464 0.325,-0.456 0.289,-0.439C0.252,-0.422 0.224,-0.398 0.203,-0.367C0.182,-0.336 0.172,-0.302 0.172,-0.263C0.171,-0.224 0.182,-0.189 0.203,-0.159C0.224,-0.128 0.252,-0.104 0.289,-0.087C0.326,-0.07 0.367,-0.061 0.413,-0.061Z" style="fill:rgb(230,230,230);fill-rule:nonzero;"/>
        </g>
        <g transform="matrix(96,0,0,96,384.715,182.89)">
            <path d="M0.168,0.22L0.168,-0.523L0.243,-0.523L0.245,-0.393L0.23,-0.392C0.239,-0.419 0.255,-0.443 0.279,-0.464C0.303,-0.485 0.332,-0.501 0.367,-0.515C0.402,-0.528 0.439,-0.534 0.48,-0.534C0.535,-0.534 0.584,-0.522 0.627,-0.499C0.67,-0.476 0.704,-0.444 0.729,-0.403C0.754,-0.362 0.766,-0.314 0.766,-0.261C0.766,-0.209 0.754,-0.163 0.73,-0.122C0.706,-0.081 0.672,-0.049 0.629,-0.027C0.586,-0.003 0.536,0.008 0.481,0.008C0.438,0.008 0.399,0.002 0.364,-0.012C0.329,-0.024 0.3,-0.042 0.276,-0.064C0.251,-0.085 0.234,-0.109 0.224,-0.136L0.244,-0.137L0.244,0.22L0.168,0.22ZM0.468,-0.063C0.512,-0.063 0.551,-0.072 0.584,-0.089C0.616,-0.106 0.643,-0.13 0.662,-0.16C0.681,-0.19 0.691,-0.224 0.691,-0.261C0.691,-0.3 0.681,-0.334 0.662,-0.365C0.643,-0.395 0.616,-0.419 0.583,-0.436C0.55,-0.453 0.512,-0.462 0.469,-0.462C0.424,-0.462 0.384,-0.453 0.35,-0.436C0.315,-0.419 0.288,-0.395 0.269,-0.365C0.249,-0.335 0.239,-0.301 0.239,-0.262C0.239,-0.224 0.249,-0.19 0.269,-0.161C0.288,-0.131 0.315,-0.107 0.35,-0.09C0.384,-0.072 0.423,-0.063 0.468,-0.063Z" style="fill:rgb(230,230,230);fill-rule:nonzero;"/>
        </g>
    </g>
</svg>
